<?xml version="1.0" encoding="UTF-8" standalone="no"?>
<!-- Generator: Adobe Illustrator 15.0.0, SVG Export Plug-In . SVG Version: 6.00 Build 0)  -->

<svg
   xmlns:dc="http://purl.org/dc/elements/1.1/"
   xmlns:cc="http://creativecommons.org/ns#"
   xmlns:rdf="http://www.w3.org/1999/02/22-rdf-syntax-ns#"
   xmlns:svg="http://www.w3.org/2000/svg"
   xmlns="http://www.w3.org/2000/svg"
   xmlns:sodipodi="http://sodipodi.sourceforge.net/DTD/sodipodi-0.dtd"
   xmlns:inkscape="http://www.inkscape.org/namespaces/inkscape"
   version="1.1"
   id="Layer_1"
   x="0px"
   y="0px"
   width="325.5px"
   height="65.5px"
   viewBox="0 0 325.5 65.5"
   style="enable-background:new 0 0 325.5 65.5;"
   xml:space="preserve"
   inkscape:version="0.48.3.1 r9886"
   sodipodi:docname="logo.svg"
   inkscape:export-filename="/home/gkoul/Desktop/newlogo.png"
   inkscape:export-xdpi="283.13"
   inkscape:export-ydpi="283.13"><metadata
   id="metadata3094"><rdf:RDF><cc:Work
       rdf:about=""><dc:format>image/svg+xml</dc:format><dc:type
         rdf:resource="http://purl.org/dc/dcmitype/StillImage" /><dc:title></dc:title></cc:Work></rdf:RDF></metadata><defs
   id="defs3092" /><sodipodi:namedview
   pagecolor="#ffffff"
   bordercolor="#666666"
   borderopacity="1"
   objecttolerance="10"
   gridtolerance="10"
   guidetolerance="10"
   inkscape:pageopacity="0"
   inkscape:pageshadow="2"
   inkscape:window-width="1440"
   inkscape:window-height="841"
   id="namedview3090"
   showgrid="false"
   inkscape:zoom="2.8305995"
   inkscape:cx="105.10646"
   inkscape:cy="28.860465"
   inkscape:window-x="0"
   inkscape:window-y="27"
   inkscape:window-maximized="1"
   inkscape:current-layer="Layer_1" />
<style
   type="text/css"
   id="style3051">

	.st0{fill:#F6F6F6;}
	.st1{fill:#414042;}

</style>

<g
   id="g3056"
   transform="translate(-16.957538,7.4189227)"
   style="fill:#f6f6f6;fill-opacity:1">
	<path
   class="st0"
   d="m 179.3,6.1 v 2.7 h -5.2 v 14.7 h -3.2 V 8.7 h -5.2 V 6.1 h 13.6 z"
   id="path3058"
   inkscape:connector-curvature="0"
   style="fill:#f6f6f6;fill-opacity:1" />
	<path
   class="st0"
   d="m 196,23.4 h -3.3 v -7.6 h -8.1 v 7.6 h -3.3 V 6.1 h 3.3 v 7.5 h 8.1 V 6.1 h 3.3 v 17.3 z"
   id="path3060"
   inkscape:connector-curvature="0"
   style="fill:#f6f6f6;fill-opacity:1" />
	<path
   class="st0"
   d="m 216.2,14.7 c 0,1.3 -0.2,2.5 -0.6,3.5 -0.4,1.1 -1,2 -1.8,2.8 -0.8,0.8 -1.7,1.4 -2.8,1.9 -1.1,0.4 -2.3,0.7 -3.6,0.7 -1.3,0 -2.5,-0.2 -3.6,-0.7 -1.1,-0.4 -2,-1.1 -2.8,-1.9 -0.8,-0.8 -1.4,-1.7 -1.8,-2.8 -0.4,-1.1 -0.6,-2.3 -0.6,-3.5 0,-1.3 0.2,-2.5 0.6,-3.5 0.4,-1 1,-2 1.8,-2.8 0.8,-0.8 1.7,-1.4 2.8,-1.9 1.1,-0.5 2.3,-0.7 3.6,-0.7 1.3,0 2.5,0.2 3.6,0.7 1.1,0.4 2,1.1 2.8,1.9 0.8,0.8 1.4,1.7 1.8,2.8 0.3,1.1 0.6,2.3 0.6,3.5 z m -3.4,0 c 0,-1 -0.1,-1.8 -0.4,-2.6 -0.3,-0.8 -0.6,-1.4 -1.1,-1.9 -0.5,-0.5 -1,-0.9 -1.7,-1.2 -0.7,-0.3 -1.4,-0.4 -2.3,-0.4 -0.8,0 -1.6,0.1 -2.3,0.4 -0.7,0.3 -1.3,0.7 -1.7,1.2 -0.4,0.5 -0.8,1.2 -1.1,1.9 -0.3,0.8 -0.4,1.6 -0.4,2.6 0,1 0.1,1.8 0.4,2.6 0.3,0.8 0.6,1.4 1.1,1.9 0.5,0.5 1.1,0.9 1.7,1.2 0.7,0.3 1.4,0.4 2.3,0.4 0.8,0 1.6,-0.1 2.3,-0.4 0.7,-0.3 1.3,-0.7 1.7,-1.2 0.5,-0.5 0.8,-1.2 1.1,-1.9 0.3,-0.7 0.4,-1.6 0.4,-2.6 z"
   id="path3062"
   inkscape:connector-curvature="0"
   style="fill:#f6f6f6;fill-opacity:1" />
	<path
   class="st0"
   d="m 225.7,20.8 c 0.6,0 1.2,-0.1 1.7,-0.3 0.5,-0.2 0.9,-0.5 1.2,-0.9 0.3,-0.4 0.6,-0.8 0.8,-1.4 0.2,-0.6 0.3,-1.1 0.3,-1.8 V 6.1 h 3.2 v 10.4 c 0,1 -0.2,2 -0.5,2.9 -0.3,0.9 -0.8,1.6 -1.4,2.3 -0.6,0.7 -1.4,1.1 -2.3,1.5 -0.9,0.4 -1.9,0.5 -3,0.5 -1.1,0 -2.1,-0.2 -3,-0.5 -0.9,-0.4 -1.6,-0.9 -2.3,-1.5 -0.6,-0.6 -1.1,-1.4 -1.4,-2.3 -0.3,-0.9 -0.5,-1.8 -0.5,-2.9 V 6.1 h 3.2 v 10.4 c 0,0.7 0.1,1.3 0.3,1.8 0.2,0.5 0.4,1 0.8,1.4 0.4,0.4 0.8,0.7 1.2,0.9 0.4,0.2 1.1,0.2 1.7,0.2 z"
   id="path3064"
   inkscape:connector-curvature="0"
   style="fill:#f6f6f6;fill-opacity:1" />
	<path
   class="st0"
   d="m 244.1,21 c 0.7,0 1.4,-0.1 1.9,-0.2 0.5,-0.1 1.1,-0.3 1.5,-0.5 v -3.2 h -2.2 c -0.2,0 -0.4,-0.1 -0.5,-0.2 -0.1,-0.1 -0.2,-0.3 -0.2,-0.4 v -1.8 h 5.8 v 7 c -0.4,0.3 -0.9,0.6 -1.4,0.8 -0.5,0.2 -1,0.4 -1.5,0.6 -0.5,0.2 -1.1,0.3 -1.7,0.3 -0.6,0 -1.3,0.1 -2,0.1 -1.3,0 -2.4,-0.2 -3.5,-0.7 -1.1,-0.4 -2,-1.1 -2.8,-1.8 -0.8,-0.7 -1.4,-1.7 -1.8,-2.8 -0.4,-1.1 -0.7,-2.3 -0.7,-3.6 0,-1.3 0.2,-2.5 0.6,-3.6 0.4,-1.1 1,-2 1.8,-2.8 0.8,-0.8 1.7,-1.4 2.8,-1.8 1.1,-0.4 2.4,-0.6 3.7,-0.6 1.4,0 2.6,0.2 3.7,0.6 1.1,0.4 1.9,1 2.6,1.6 l -0.9,1.5 c -0.2,0.3 -0.4,0.4 -0.7,0.4 -0.2,0 -0.4,-0.1 -0.6,-0.2 -0.3,-0.2 -0.5,-0.3 -0.8,-0.5 -0.3,-0.2 -0.6,-0.3 -0.9,-0.4 -0.3,-0.1 -0.7,-0.2 -1.1,-0.3 -0.4,-0.1 -0.9,-0.1 -1.4,-0.1 -0.9,0 -1.6,0.1 -2.3,0.4 -0.7,0.3 -1.3,0.7 -1.8,1.2 -0.5,0.5 -0.9,1.2 -1.1,1.9 -0.2,0.7 -0.4,1.6 -0.4,2.5 0,1 0.1,1.9 0.4,2.7 0.3,0.8 0.7,1.4 1.2,2 0.5,0.6 1.1,0.9 1.8,1.2 1,0.6 1.7,0.7 2.5,0.7 z"
   id="path3066"
   inkscape:connector-curvature="0"
   style="fill:#f6f6f6;fill-opacity:1" />
	<path
   class="st0"
   d="m 268.2,23.4 h -3.3 v -7.6 h -8.1 v 7.6 h -3.3 V 6.1 h 3.3 v 7.5 h 8.1 V 6.1 h 3.3 v 17.3 z"
   id="path3068"
   inkscape:connector-curvature="0"
   style="fill:#f6f6f6;fill-opacity:1" />
	<path
   class="st0"
   d="m 283.9,6.1 v 2.7 h -5.2 v 14.7 h -3.2 V 8.7 h -5.2 V 6.1 h 13.6 z"
   id="path3070"
   inkscape:connector-curvature="0"
   style="fill:#f6f6f6;fill-opacity:1" />
	<path
   class="st0"
   d="m 178,35.4 v 0.3 h -9.5 v 8.1 h 8.3 V 44 h -8.3 v 8.2 h -0.3 V 35.4 h 9.8 z"
   id="path3072"
   inkscape:connector-curvature="0"
   style="fill:#f6f6f6;fill-opacity:1" />
	<path
   class="st0"
   d="m 196.5,43.8 c 0,1.3 -0.2,2.5 -0.6,3.6 -0.4,1.1 -0.9,2 -1.6,2.7 -0.7,0.7 -1.5,1.3 -2.5,1.7 -1,0.4 -2,0.6 -3.2,0.6 -1.1,0 -2.2,-0.2 -3.1,-0.6 -0.9,-0.4 -1.8,-1 -2.4,-1.7 -0.7,-0.7 -1.2,-1.6 -1.6,-2.7 -0.4,-1.1 -0.6,-2.2 -0.6,-3.6 0,-1.3 0.2,-2.5 0.6,-3.6 0.4,-1.1 0.9,-2 1.6,-2.7 0.7,-0.7 1.5,-1.3 2.4,-1.7 0.9,-0.4 2,-0.6 3.1,-0.6 1.2,0 2.2,0.2 3.2,0.6 1,0.4 1.8,1 2.5,1.7 0.7,0.7 1.2,1.6 1.6,2.7 0.4,1.1 0.6,2.3 0.6,3.6 z m -0.3,0 c 0,-1.3 -0.2,-2.5 -0.5,-3.5 -0.4,-1 -0.9,-1.9 -1.5,-2.6 -0.7,-0.7 -1.4,-1.3 -2.4,-1.6 -1,-0.3 -1.9,-0.6 -3,-0.6 -1.1,0 -2.1,0.2 -3,0.6 -0.9,0.4 -1.7,0.9 -2.4,1.6 -0.7,0.7 -1.2,1.6 -1.5,2.6 -0.4,1 -0.6,2.2 -0.6,3.5 0,1.3 0.2,2.5 0.6,3.5 0.4,1 0.9,1.9 1.5,2.6 0.7,0.7 1.4,1.3 2.4,1.6 0.9,0.4 1.9,0.6 3,0.6 1.1,0 2.1,-0.2 3,-0.6 0.9,-0.4 1.7,-0.9 2.4,-1.6 0.7,-0.7 1.2,-1.6 1.5,-2.6 0.3,-1 0.5,-2.2 0.5,-3.5 z"
   id="path3074"
   inkscape:connector-curvature="0"
   style="fill:#f6f6f6;fill-opacity:1" />
	<path
   class="st0"
   d="m 202,44.1 v 8.1 h -0.3 V 35.4 h 3.9 c 1.8,0 3.1,0.3 4,1 0.9,0.7 1.4,1.7 1.4,3.2 0,0.7 -0.1,1.3 -0.4,1.8 -0.3,0.5 -0.6,1 -1.1,1.4 -0.5,0.4 -1.1,0.7 -1.7,0.9 -0.6,0.2 -1.4,0.3 -2.2,0.3 0.1,0 0.2,0.1 0.2,0.1 0.1,0.1 0.1,0.1 0.2,0.2 l 6.6,7.8 h -0.2 c -0.1,0 -0.1,0 -0.2,0 0,0 -0.1,-0.1 -0.2,-0.1 l -6.3,-7.5 c -0.1,-0.1 -0.1,-0.2 -0.2,-0.2 -0.1,-0.1 -0.1,-0.1 -0.2,-0.1 -0.1,0 -0.2,-0.1 -0.3,-0.1 -0.1,0 -0.3,0 -0.4,0 H 202 z m 0,-0.2 h 3.4 c 0.8,0 1.6,-0.1 2.2,-0.3 0.7,-0.2 1.2,-0.5 1.7,-0.8 0.5,-0.4 0.8,-0.8 1.1,-1.3 0.3,-0.5 0.4,-1.1 0.4,-1.8 0,-1.4 -0.4,-2.4 -1.3,-3 -0.9,-0.6 -2.2,-1 -3.8,-1 H 202 v 8.2 z"
   id="path3076"
   inkscape:connector-curvature="0"
   style="fill:#f6f6f6;fill-opacity:1" />
	<path
   class="st0"
   d="m 233.2,49.9 c 0.1,0 0.1,0 0,0 l 0.2,0.1 c -0.4,0.3 -0.7,0.7 -1.1,0.9 -0.4,0.3 -0.8,0.5 -1.3,0.7 -0.5,0.2 -1,0.4 -1.6,0.5 -0.6,0.1 -1.2,0.2 -1.9,0.2 -1.1,0 -2.2,-0.2 -3.1,-0.6 -1,-0.4 -1.8,-1 -2.5,-1.7 -0.7,-0.7 -1.2,-1.6 -1.6,-2.7 -0.4,-1.1 -0.6,-2.3 -0.6,-3.6 0,-1.3 0.2,-2.4 0.6,-3.5 0.4,-1.1 0.9,-2 1.6,-2.7 0.7,-0.7 1.6,-1.3 2.5,-1.8 1,-0.4 2.1,-0.6 3.3,-0.6 0.6,0 1.2,0 1.6,0.1 0.5,0.1 0.9,0.2 1.4,0.4 0.5,0.2 0.8,0.4 1.2,0.6 0.4,0.2 0.8,0.5 1.2,0.9 l 0,0.1 c 0,0 -0.1,0.1 -0.1,0.1 -0.1,0 -0.1,0 -0.3,-0.1 -0.1,-0.1 -0.3,-0.2 -0.4,-0.3 -0.2,-0.1 -0.4,-0.3 -0.7,-0.4 -0.3,-0.2 -0.6,-0.3 -0.9,-0.4 -0.4,-0.1 -0.8,-0.2 -1.3,-0.3 -0.5,-0.1 -1,-0.1 -1.6,-0.1 -1.1,0 -2.2,0.2 -3.1,0.6 -0.9,0.4 -1.8,0.9 -2.4,1.7 -0.6,0.8 -1.2,1.6 -1.6,2.6 -0.4,1 -0.6,2.2 -0.6,3.5 0,1.3 0.2,2.5 0.6,3.5 0.4,1 0.9,1.9 1.6,2.6 0.7,0.7 1.5,1.3 2.4,1.6 0.9,0.3 1.9,0.6 3,0.6 0.7,0 1.3,0 1.8,-0.1 0.5,-0.1 1,-0.2 1.5,-0.4 0.4,-0.2 0.9,-0.4 1.2,-0.7 0.2,-0.6 0.6,-0.9 1,-1.3 0,0.1 0,0 0,0 z"
   id="path3078"
   inkscape:connector-curvature="0"
   style="fill:#f6f6f6;fill-opacity:1" />
	<path
   class="st0"
   d="M 250.3,52.2 H 250 v -8.4 h -11.8 v 8.4 H 238 V 35.4 h 0.3 v 8.1 h 11.8 v -8.1 h 0.3 v 16.8 z"
   id="path3080"
   inkscape:connector-curvature="0"
   style="fill:#f6f6f6;fill-opacity:1" />
	<path
   class="st0"
   d="m 267.7,52.2 h -0.2 c -0.1,0 -0.1,0 -0.1,-0.1 l -2.3,-5.6 h -8.9 l -2.3,5.6 c 0,0.1 -0.1,0.1 -0.2,0.1 h -0.2 l 7,-16.8 h 0.2 l 7,16.8 z m -11.4,-6 h 8.7 l -4.1,-9.9 c 0,-0.1 -0.1,-0.2 -0.1,-0.2 0,-0.1 -0.1,-0.2 -0.1,-0.2 0,0.1 -0.1,0.2 -0.1,0.2 0,0.1 -0.1,0.2 -0.1,0.2 l -4.2,9.9 z"
   id="path3082"
   inkscape:connector-curvature="0"
   style="fill:#f6f6f6;fill-opacity:1" />
	<path
   class="st0"
   d="M 271.1,35.5 283,51.7 c 0,0 0,-0.1 0,-0.1 0,0 0,-0.1 0,-0.1 v -16 h 0.2 v 16.8 h -0.1 c 0,0 -0.1,0 -0.1,-0.1 L 271,35.9 c 0,0 0,0.1 0,0.1 0,0.1 0,0.1 0,0.1 v 16.1 h -0.2 V 35.4 h 0.1 c 0.1,0 0.2,0 0.2,0.1 z"
   id="path3084"
   inkscape:connector-curvature="0"
   style="fill:#f6f6f6;fill-opacity:1" />
	<path
   class="st0"
   d="m 296,52.2 c 0.7,0 1.3,0 1.9,-0.1 0.6,-0.1 1.1,-0.2 1.6,-0.3 0.5,-0.1 0.9,-0.3 1.4,-0.5 0.4,-0.2 0.9,-0.5 1.3,-0.7 v -5.2 h -3.8 c -0.1,0 -0.1,0 -0.1,-0.1 V 45 h 4.2 v 5.6 c -0.4,0.3 -0.8,0.5 -1.3,0.8 -0.4,0.2 -0.9,0.4 -1.4,0.6 -0.5,0.2 -1.1,0.3 -1.7,0.4 -0.6,0.1 -1.3,0.1 -2,0.1 -1.2,0 -2.3,-0.2 -3.3,-0.6 -1,-0.4 -1.8,-1 -2.5,-1.7 -0.7,-0.7 -1.2,-1.6 -1.6,-2.7 -0.4,-1.1 -0.6,-2.3 -0.6,-3.6 0,-1.3 0.2,-2.5 0.6,-3.6 0.4,-1.1 0.9,-2 1.7,-2.7 0.7,-0.7 1.6,-1.3 2.6,-1.7 1,-0.4 2.2,-0.6 3.4,-0.6 0.6,0 1.2,0 1.7,0.1 0.5,0.1 1,0.2 1.4,0.4 0.4,0.2 0.9,0.4 1.3,0.6 0.4,0.2 0.8,0.5 1.2,0.9 l 0,0.1 c 0,0 -0.1,0.1 -0.1,0.1 -0.1,0 -0.2,-0.1 -0.4,-0.3 -0.2,-0.2 -0.5,-0.4 -0.9,-0.6 -0.4,-0.2 -1,-0.4 -1.6,-0.6 -0.7,-0.2 -1.5,-0.3 -2.4,-0.3 -1.2,0 -2.3,0.2 -3.3,0.6 -1,0.4 -1.8,0.9 -2.5,1.6 -0.7,0.7 -1.2,1.6 -1.6,2.6 -0.4,1 -0.6,2.2 -0.6,3.5 0,1.3 0.2,2.5 0.6,3.5 0.4,1 0.9,1.9 1.6,2.6 0.7,0.7 1.5,1.3 2.4,1.6 0.6,0.3 1.6,0.5 2.8,0.5 z"
   id="path3086"
   inkscape:connector-curvature="0"
   style="fill:#f6f6f6;fill-opacity:1" />
	<path
   class="st0"
   d="m 317.1,35.4 v 0.3 h -9.5 v 7.9 h 8.1 v 0.3 h -8.1 V 52 h 9.6 l 0,0.3 h -9.8 V 35.4 h 9.7 z"
   id="path3088"
   inkscape:connector-curvature="0"
   style="fill:#f6f6f6;fill-opacity:1" />
</g>

<g
   id="g3545"
   transform="matrix(1.1651051,0,0,1.1413258,34.973469,-24.360333)"><g
     id="g3877"
     transform="matrix(-0.74479513,0,0,0.74479513,70.405429,22.2799)"
     style="fill:#414042;fill-opacity:1"><path
       style="fill:#414042;fill-opacity:1"
       id="path5"
       d="m 6.859,24.549 c 3.548,3.208 7.767,5.271 12.896,6.308 4.998,1.01 10.589,1.954 17.74,2.178 C 27.737,30.89 17.697,27.722 14.046,24.343 14.002,24.358 13.96,24.375 13.915,24.39 13.683,24.218 13.448,24.056 13.222,23.866 11.774,22.648 10.119,21.11 8.279,20.327 5.353,18.712 0.972,18.144 0.5,22.483 c -0.049,0.451 0.158,0.741 0.456,0.885 0.609,-0.258 1.285,-0.403 1.989,-0.403 1.414,0 2.768,0.548 3.914,1.584 z"
       inkscape:connector-curvature="0" /><path
       style="fill:#414042;fill-opacity:1"
       id="path7"
       d="m 46.243,32.949 c -2.25,-1.057 -4.703,-2.333 -5.943,-2.665 0.017,-0.102 -8.819,-3.94 -12.801,-2.786 -0.165,0.048 -0.303,0.142 -0.423,0.255 -7.314,-4.717 -8.357,-5.04 -11.08,-4.603 -0.114,0.007 -0.296,0.097 -0.5,0.224 4.204,3.571 18.062,7.548 30.637,9.582 0.035,-0.003 0.073,-0.005 0.11,-0.007 z"
       inkscape:connector-curvature="0" /><path
       style="fill:#414042;fill-opacity:1"
       id="path9"
       d="M 99.754,59.034 C 89.53,36.135 93.369,32.916 73.172,27.866 c -2.68,-0.67 -20.687,-6.611 -23.743,-7.24 -0.832,-0.171 -1.633,-0.249 -2.39,-0.249 -5.375,0 -8.436,3.912 -3.467,5.821 5.207,2.001 5.659,2.959 9.13,3.851 1.525,0.392 7.67,1.378 10.471,2.892 -8.992,1.328 -16.24,1.857 -22.448,1.857 -8.45,0 -14.968,-0.981 -21.31,-2.262 C 14.358,31.514 9.775,29.495 5.71,25.82 4.817,25.013 3.837,24.678 2.943,24.678 c -2.437,0 -4.221,2.494 -1.778,4.703 0.593,0.536 2.123,2.029 2.358,2.28 12.631,13.481 29.178,15.288 51.992,18.455 0.568,0.079 4.821,0.384 6.337,0.384 0.239,0 0.41,-0.008 0.488,-0.025 10.303,3.177 15.624,10.955 22.269,24.244 0.08,0.16 0.252,0.235 0.499,0.235 2.975,0 16.902,-10.866 14.646,-15.92 z"
       inkscape:connector-curvature="0" /></g><g
     id="g3903"
     transform="matrix(0.17430925,-0.10984938,0.10984938,0.17430925,35.273658,26.260685)"
     style="fill:#414042;fill-opacity:1"><polygon
       id="polygon3"
       points="61.13,4.866 66.747,6.374 66.742,18.383 61.123,19.885 "
       transform="translate(24.695487,43.852492)" /><path
       id="path5-2"
       d="m 104.16949,50.213492 h 3.151 c 0,0 17.336,1.021 17.336,6.021 -0.002,5.002 -17.342,6.008 -17.342,6.008 l -3.154,-0.004 0.009,-12.025 z"
       inkscape:connector-curvature="0" /><rect
       id="rect7"
       height="12.029"
       width="10.526"
       y="50.213493"
       x="92.539482" /><rect
       id="rect9"
       height="15.019"
       width="53.334999"
       y="48.718491"
       x="31.388485" /><rect
       id="rect11"
       height="12.03"
       width="2.198"
       y="50.213493"
       x="28.095486" /><rect
       id="rect13"
       height="15.019"
       width="2.198"
       y="48.718491"
       x="24.801487" /></g></g><g
   id="Your_Icon_1_-3"
   transform="matrix(0.15987805,0,0,0.15987805,119.85513,75.80041)" /></svg>